<svg width="30" height="34" viewBox="0 0 30 34" fill="none" xmlns="http://www.w3.org/2000/svg">
<path d="M21.928 0.271973C19.4071 0.271973 16.9877 1.74273 15.4086 4.0669C13.8295 1.74273 11.4101 0.271973 8.88924 0.271973C4.42711 0.271973 0.921143 4.6661 0.921143 10.2586C0.921143 17.1222 5.84688 22.7147 13.3079 31.2124L15.4086 33.5911L17.5093 31.1943C24.9703 22.7147 29.8961 17.1222 29.8961 10.2586C29.8961 4.6661 26.3901 0.271973 21.928 0.271973ZM15.5535 28.5069L15.4086 28.6885L15.2637 28.5069C8.3677 20.681 3.81863 15.5061 3.81863 10.2586C3.81863 6.62711 5.99175 3.90348 8.88924 3.90348C11.1203 3.90348 13.2934 5.70108 14.0613 8.18866H16.7704C17.5238 5.70108 19.6969 3.90348 21.928 3.90348C24.8254 3.90348 26.9986 6.62711 26.9986 10.2586C26.9986 15.5061 22.4495 20.681 15.5535 28.5069Z" fill="#333334"/>
</svg>
