<svg width="30" height="34" viewBox="0 0 30 34" fill="none" xmlns="http://www.w3.org/2000/svg">
<path d="M21.8948 0.271973C19.3739 0.271973 16.9545 1.74273 15.3754 4.0669C13.7963 1.74273 11.3769 0.271973 8.85604 0.271973C4.3939 0.271973 0.887939 4.6661 0.887939 10.2586C0.887939 17.1222 5.81368 22.7147 13.2747 31.2124L15.3754 33.5911L17.4761 31.1943C24.9371 22.7147 29.8629 17.1222 29.8629 10.2586C29.8629 4.6661 26.3569 0.271973 21.8948 0.271973ZM15.5203 28.5069L15.3754 28.6885L15.2305 28.5069C8.33449 20.681 3.78543 15.5061 3.78543 10.2586C3.78543 6.62711 5.95855 3.90348 8.85604 3.90348C11.0871 3.90348 13.2602 5.70108 14.0281 8.18866H16.7372C17.4906 5.70108 19.6637 3.90348 21.8948 3.90348C24.7922 3.90348 26.9654 6.62711 26.9654 10.2586C26.9654 15.5061 22.4163 20.681 15.5203 28.5069Z" fill="#333334"/>
</svg>
