<svg width="30" height="35" viewBox="0 0 30 35" fill="none" xmlns="http://www.w3.org/2000/svg">
<path d="M21.928 0.820923C19.4071 0.820923 16.9877 2.29168 15.4086 4.61585C13.8295 2.29168 11.4101 0.820923 8.88924 0.820923C4.42711 0.820923 0.921143 5.21505 0.921143 10.8076C0.921143 17.6711 5.84688 23.2636 13.3079 31.7614L15.4086 34.14L17.5093 31.7432C24.9703 23.2636 29.8961 17.6711 29.8961 10.8076C29.8961 5.21505 26.3901 0.820923 21.928 0.820923ZM15.5535 29.0559L15.4086 29.2375L15.2637 29.0559C8.3677 21.23 3.81863 16.0551 3.81863 10.8076C3.81863 7.17606 5.99175 4.45243 8.88924 4.45243C11.1203 4.45243 13.2934 6.25003 14.0613 8.73761H16.7704C17.5238 6.25003 19.6969 4.45243 21.928 4.45243C24.8254 4.45243 26.9986 7.17606 26.9986 10.8076C26.9986 16.0551 22.4495 21.23 15.5535 29.0559Z" fill="#333334"/>
</svg>
