<svg width="30" height="35" viewBox="0 0 30 35" fill="none" xmlns="http://www.w3.org/2000/svg">
<path d="M21.8948 0.91925C19.3739 0.91925 16.9545 2.39001 15.3754 4.71418C13.7963 2.39001 11.3769 0.91925 8.85604 0.91925C4.3939 0.91925 0.887939 5.31337 0.887939 10.9059C0.887939 17.7694 5.81368 23.362 13.2747 31.8597L15.3754 34.2383L17.4761 31.8415C24.9371 23.362 29.8629 17.7694 29.8629 10.9059C29.8629 5.31337 26.3569 0.91925 21.8948 0.91925ZM15.5203 29.1542L15.3754 29.3358L15.2305 29.1542C8.33449 21.3283 3.78543 16.1534 3.78543 10.9059C3.78543 7.27439 5.95855 4.55076 8.85604 4.55076C11.0871 4.55076 13.2602 6.34835 14.0281 8.83594H16.7372C17.4906 6.34835 19.6637 4.55076 21.8948 4.55076C24.7922 4.55076 26.9654 7.27439 26.9654 10.9059C26.9654 16.1534 22.4163 21.3283 15.5203 29.1542Z" fill="#333334"/>
</svg>
