<svg width="30" height="34" viewBox="0 0 30 34" fill="none" xmlns="http://www.w3.org/2000/svg">
<path d="M21.8948 0.370087C19.3739 0.370087 16.9545 1.84085 15.3754 4.16501C13.7963 1.84085 11.3769 0.370087 8.85604 0.370087C4.3939 0.370087 0.887939 4.76421 0.887939 10.3567C0.887939 17.2203 5.81368 22.8128 13.2747 31.3105L15.3754 33.6892L17.4761 31.2924C24.9371 22.8128 29.8629 17.2203 29.8629 10.3567C29.8629 4.76421 26.3569 0.370087 21.8948 0.370087ZM15.5203 28.6051L15.3754 28.7866L15.2305 28.6051C8.33449 20.7792 3.78543 15.6043 3.78543 10.3567C3.78543 6.72522 5.95855 4.00159 8.85604 4.00159C11.0871 4.00159 13.2602 5.79919 14.0281 8.28677H16.7372C17.4906 5.79919 19.6637 4.00159 21.8948 4.00159C24.7922 4.00159 26.9654 6.72522 26.9654 10.3567C26.9654 15.6043 22.4163 20.7792 15.5203 28.6051Z" fill="#333334"/>
</svg>
