<svg width="30" height="35" viewBox="0 0 30 35" fill="none" xmlns="http://www.w3.org/2000/svg">
<path d="M21.8614 0.820923C19.3406 0.820923 16.9212 2.29168 15.3421 4.61585C13.7629 2.29168 11.3435 0.820923 8.82272 0.820923C4.36058 0.820923 0.854614 5.21505 0.854614 10.8076C0.854614 17.6711 5.78035 23.2636 13.2414 31.7614L15.3421 34.14L17.4428 31.7432C24.9038 23.2636 29.8295 17.6711 29.8295 10.8076C29.8295 5.21505 26.3236 0.820923 21.8614 0.820923ZM15.4869 29.0559L15.3421 29.2375L15.1972 29.0559C8.30117 21.23 3.75211 16.0551 3.75211 10.8076C3.75211 7.17606 5.92522 4.45243 8.82272 4.45243C11.0538 4.45243 13.2269 6.25003 13.9947 8.73761H16.7039C17.4572 6.25003 19.6304 4.45243 21.8614 4.45243C24.7589 4.45243 26.932 7.17606 26.932 10.8076C26.932 16.0551 22.383 21.23 15.4869 29.0559Z" fill="#333334"/>
</svg>
