<svg width="30" height="34" viewBox="0 0 30 34" fill="none" xmlns="http://www.w3.org/2000/svg">
<path d="M21.8614 0.370087C19.3406 0.370087 16.9212 1.84085 15.3421 4.16501C13.7629 1.84085 11.3435 0.370087 8.82272 0.370087C4.36058 0.370087 0.854614 4.76421 0.854614 10.3567C0.854614 17.2203 5.78035 22.8128 13.2414 31.3105L15.3421 33.6892L17.4428 31.2924C24.9038 22.8128 29.8295 17.2203 29.8295 10.3567C29.8295 4.76421 26.3236 0.370087 21.8614 0.370087ZM15.4869 28.6051L15.3421 28.7866L15.1972 28.6051C8.30117 20.7792 3.75211 15.6043 3.75211 10.3567C3.75211 6.72522 5.92522 4.00159 8.82272 4.00159C11.0538 4.00159 13.2269 5.79919 13.9947 8.28677H16.7039C17.4572 5.79919 19.6304 4.00159 21.8614 4.00159C24.7589 4.00159 26.932 6.72522 26.932 10.3567C26.932 15.6043 22.383 20.7792 15.4869 28.6051Z" fill="#333334"/>
</svg>
