<svg width="30" height="35" viewBox="0 0 30 35" fill="none" xmlns="http://www.w3.org/2000/svg">
<path d="M21.928 0.91925C19.4071 0.91925 16.9877 2.39001 15.4086 4.71418C13.8295 2.39001 11.4101 0.91925 8.88924 0.91925C4.42711 0.91925 0.921143 5.31337 0.921143 10.9059C0.921143 17.7694 5.84688 23.362 13.3079 31.8597L15.4086 34.2383L17.5093 31.8415C24.9703 23.362 29.8961 17.7694 29.8961 10.9059C29.8961 5.31337 26.3901 0.91925 21.928 0.91925ZM15.5535 29.1542L15.4086 29.3358L15.2637 29.1542C8.3677 21.3283 3.81863 16.1534 3.81863 10.9059C3.81863 7.27439 5.99175 4.55076 8.88924 4.55076C11.1203 4.55076 13.2934 6.34835 14.0613 8.83594H16.7704C17.5238 6.34835 19.6969 4.55076 21.928 4.55076C24.8254 4.55076 26.9986 7.27439 26.9986 10.9059C26.9986 16.1534 22.4495 21.3283 15.5535 29.1542Z" fill="#333334"/>
</svg>
