<svg width="30" height="34" viewBox="0 0 30 34" fill="none" xmlns="http://www.w3.org/2000/svg">
<path d="M21.8614 0.271973C19.3406 0.271973 16.9212 1.74273 15.3421 4.0669C13.7629 1.74273 11.3435 0.271973 8.82272 0.271973C4.36058 0.271973 0.854614 4.6661 0.854614 10.2586C0.854614 17.1222 5.78035 22.7147 13.2414 31.2124L15.3421 33.5911L17.4428 31.1943C24.9038 22.7147 29.8295 17.1222 29.8295 10.2586C29.8295 4.6661 26.3236 0.271973 21.8614 0.271973ZM15.4869 28.5069L15.3421 28.6885L15.1972 28.5069C8.30117 20.681 3.75211 15.5061 3.75211 10.2586C3.75211 6.62711 5.92522 3.90348 8.82272 3.90348C11.0538 3.90348 13.2269 5.70108 13.9947 8.18866H16.7039C17.4572 5.70108 19.6304 3.90348 21.8614 3.90348C24.7589 3.90348 26.932 6.62711 26.932 10.2586C26.932 15.5061 22.383 20.681 15.4869 28.5069Z" fill="#333334"/>
</svg>
