<svg width="30" height="35" viewBox="0 0 30 35" fill="none" xmlns="http://www.w3.org/2000/svg">
<path d="M21.8948 0.820923C19.3739 0.820923 16.9545 2.29168 15.3754 4.61585C13.7963 2.29168 11.3769 0.820923 8.85604 0.820923C4.3939 0.820923 0.887939 5.21505 0.887939 10.8076C0.887939 17.6711 5.81368 23.2636 13.2747 31.7614L15.3754 34.14L17.4761 31.7432C24.9371 23.2636 29.8629 17.6711 29.8629 10.8076C29.8629 5.21505 26.3569 0.820923 21.8948 0.820923ZM15.5203 29.0559L15.3754 29.2375L15.2305 29.0559C8.33449 21.23 3.78543 16.0551 3.78543 10.8076C3.78543 7.17606 5.95855 4.45243 8.85604 4.45243C11.0871 4.45243 13.2602 6.25003 14.0281 8.73761H16.7372C17.4906 6.25003 19.6637 4.45243 21.8948 4.45243C24.7922 4.45243 26.9654 7.17606 26.9654 10.8076C26.9654 16.0551 22.4163 21.23 15.5203 29.0559Z" fill="#333334"/>
</svg>
