<svg width="30" height="34" viewBox="0 0 30 34" fill="none" xmlns="http://www.w3.org/2000/svg">
<path d="M21.928 0.318817C19.4071 0.318817 16.9877 1.78958 15.4086 4.11374C13.8295 1.78958 11.4101 0.318817 8.88924 0.318817C4.42711 0.318817 0.921143 4.71294 0.921143 10.3055C0.921143 17.169 5.84688 22.7615 13.3079 31.2593L15.4086 33.6379L17.5093 31.2411C24.9703 22.7615 29.8961 17.169 29.8961 10.3055C29.8961 4.71294 26.3901 0.318817 21.928 0.318817ZM15.5535 28.5538L15.4086 28.7354L15.2637 28.5538C8.3677 20.7279 3.81863 15.553 3.81863 10.3055C3.81863 6.67396 5.99175 3.95032 8.88924 3.95032C11.1203 3.95032 13.2934 5.74792 14.0613 8.2355H16.7704C17.5238 5.74792 19.6969 3.95032 21.928 3.95032C24.8254 3.95032 26.9986 6.67396 26.9986 10.3055C26.9986 15.553 22.4495 20.7279 15.5535 28.5538Z" fill="#333334"/>
</svg>
