<svg width="30" height="35" viewBox="0 0 30 35" fill="none" xmlns="http://www.w3.org/2000/svg">
<path d="M21.8614 0.91925C19.3406 0.91925 16.9212 2.39001 15.3421 4.71418C13.7629 2.39001 11.3435 0.91925 8.82272 0.91925C4.36058 0.91925 0.854614 5.31337 0.854614 10.9059C0.854614 17.7694 5.78035 23.362 13.2414 31.8597L15.3421 34.2383L17.4428 31.8415C24.9038 23.362 29.8295 17.7694 29.8295 10.9059C29.8295 5.31337 26.3236 0.91925 21.8614 0.91925ZM15.4869 29.1542L15.3421 29.3358L15.1972 29.1542C8.30117 21.3283 3.75211 16.1534 3.75211 10.9059C3.75211 7.27439 5.92522 4.55076 8.82272 4.55076C11.0538 4.55076 13.2269 6.34835 13.9947 8.83594H16.7039C17.4572 6.34835 19.6304 4.55076 21.8614 4.55076C24.7589 4.55076 26.932 7.27439 26.932 10.9059C26.932 16.1534 22.383 21.3283 15.4869 29.1542Z" fill="#333334"/>
</svg>
